<!-- Generated by IcoMoon.io -->
<svg version="1.1" xmlns="http://www.w3.org/2000/svg" width="512" height="512" viewBox="0 0 512 512">
<title></title>

<path d="M0 0h64v512h-64v-512z"></path>
<path d="M416 321.501c41.312 0 77.285-9.992 96-24.75v-256c-18.715 14.759-54.688 24.751-96 24.751s-77.285-9.992-96-24.751v256c18.715 14.758 54.688 24.75 96 24.75z"></path>
<path d="M304 16.264c-23.453-9.97-57.76-16.264-96-16.264-48.198 0-90.167 9.992-112 24.751v256c21.833-14.759 63.802-24.751 112-24.751 38.24 0 72.547 6.294 96 16.264v-256z"></path>
</svg>
